<?xml version="1.0" encoding="utf-8"?>
<!-- Generator: Adobe Illustrator 25.3.1, SVG Export Plug-In . SVG Version: 6.00 Build 0)  -->
<svg version="1.1" id="Layer_1" xmlns="http://www.w3.org/2000/svg" xmlns:xlink="http://www.w3.org/1999/xlink" x="0px" y="0px"
	 viewBox="0 0 612 792" style="enable-background:new 0 0 612 792;" xml:space="preserve">
<style type="text/css">
	.st0{fill:#FEFEFE;}
	.st1{fill:#86B041;}
	.st2{fill:#1881C1;}
	.st3{fill:#595959;}
	.st4{fill:#020B10;}
	.st5{fill:#F7FAFC;}
	.st6{fill:#F5F9FC;}
	.st7{fill:#F4F9FB;}
	.st8{fill:#F6FAFC;}
	.st9{fill:#F3F8FB;}
	.st10{fill:#F2F8FB;}
	.st11{fill:#1F84C3;}
	.st12{fill:#2185C4;}
	.st13{fill:#1C83C2;}
</style>
<g>
	<g>
		<path class="st0" d="M368.32,431.99c0,12,0,24,0,36.01c-41.43,0-82.87,0-124.32,0c0-47.98,0-95.97,0-144c41.43,0,82.87,0,124.32,0
			c0,12.05,0,24.13,0,36.21c-0.52-0.36-1.02-0.77-1.57-1.08c-19.72-11.42-39.44-22.82-59.16-34.25c-0.97-0.56-1.73-0.61-2.74-0.02
			c-19.84,11.52-39.71,23-59.58,34.46c-0.81,0.46-1.07,0.97-1.07,1.89c0.03,23.24,0.02,46.49,0,69.73c0,0.88,0.28,1.36,1.03,1.79
			c19.7,11.37,39.39,22.75,59.05,34.2c1.47,0.86,2.51,0.77,3.9-0.04c14.72-8.58,29.48-17.09,44.23-25.63
			C357.72,438.2,363.02,435.09,368.32,431.99z"/>
		<path class="st1" d="M368.32,431.99c-5.3,3.09-10.6,6.2-15.91,9.28c-14.74,8.54-29.5,17.05-44.23,25.63
			c-1.4,0.81-2.44,0.9-3.9,0.04c-19.65-11.45-39.35-22.83-59.05-34.2c-0.76-0.44-1.03-0.92-1.03-1.79c0.02-23.24,0.02-46.49,0-69.73
			c0-0.92,0.27-1.43,1.07-1.89c19.88-11.46,39.74-22.95,59.58-34.46c1.01-0.59,1.77-0.54,2.74,0.02
			c19.71,11.43,39.44,22.83,59.16,34.25c0.55,0.32,1.05,0.72,1.57,1.08C368.32,384.14,368.32,408.07,368.32,431.99z M246.6,396.05
			c0,10.92,0.02,21.85-0.03,32.77c-0.01,1.28,0.36,1.98,1.49,2.62c9.77,5.59,19.5,11.24,29.24,16.88
			c9.26,5.36,18.52,10.71,27.76,16.09c0.82,0.48,1.44,0.54,2.28,0.01c1.82-1.16,3.72-2.17,5.59-3.25
			c17.31-10.02,34.61-20.04,51.93-30.03c0.76-0.44,1.04-0.9,1.03-1.78c-0.03-7.92-0.02-15.84-0.02-23.77
			c0-14.2-0.01-28.41,0.03-42.61c0-1.08-0.35-1.64-1.28-2.14c-2.29-1.22-4.5-2.57-6.75-3.87c-16.86-9.76-33.72-19.51-50.56-29.29
			c-0.85-0.49-1.43-0.45-2.25,0.03c-5.95,3.5-11.94,6.94-17.91,10.4c-13.13,7.59-26.25,15.19-39.4,22.76
			c-0.87,0.5-1.18,1.04-1.17,2.06C246.61,373.96,246.6,385,246.6,396.05z"/>
		<path class="st2" d="M246.6,396.05c0-11.04,0.02-22.09-0.03-33.13c0-1.01,0.3-1.56,1.17-2.06c13.15-7.56,26.27-15.16,39.4-22.76
			c5.98-3.46,11.96-6.9,17.91-10.4c0.82-0.48,1.4-0.52,2.25-0.03c16.84,9.79,33.7,19.53,50.56,29.29c2.25,1.3,4.46,2.65,6.75,3.87
			c0.93,0.5,1.28,1.06,1.28,2.14c-0.04,14.2-0.03,28.41-0.03,42.61c0,7.92-0.01,15.84,0.02,23.77c0,0.88-0.27,1.34-1.03,1.78
			c-17.32,9.99-34.62,20.02-51.93,30.03c-1.87,1.08-3.77,2.1-5.59,3.25c-0.84,0.53-1.46,0.47-2.28-0.01
			c-9.24-5.38-18.51-10.73-27.76-16.09c-9.74-5.64-19.47-11.29-29.24-16.88c-1.12-0.64-1.49-1.34-1.49-2.62
			C246.62,417.89,246.6,406.97,246.6,396.05z M343.14,374.35c0.8-0.08,1.6-0.16,2.24-0.22c0.6-1.39-1.11-2.99,0.89-4.01
			c0.91,1.38,1.82,2.68,2.63,4.03c0.18,0.29,0.02,0.79,0.01,1.19c-0.03,0.02-0.07,0.03-0.09,0.06c-0.01,0.01,0,0.04,0,0.06
			c0.03-0.05,0.05-0.09,0.08-0.14c1.22-0.2,2.45-0.4,3.86-0.63c-2.45-1.25-4.16-3.1-5.4-5.62c1.34-0.91,2.65-1.8,3.96-2.69
			c0.24,1.14,1.12,1.62,2.07,2.03c0.77,0.33,1.52,0.7,2.29,1.02c0.97,0.41,1.03,1.11,0.67,1.96c-0.36,0.86-1.11,0.84-1.69,0.49
			c-0.9-0.54-1.68-1.29-2.49-1.93c-0.17,0.94-0.37,2.05-0.6,3.4c0.96-1.05,1.82-0.7,2.82-0.39c0.94,0.29,2.02,0.33,3,0.19
			c0.97-0.13,1.59-0.87,1.61-1.94c0.02-1.05-0.35-1.87-1.39-2.27c-1.15-0.44-2.3-0.9-3.46-1.3c-0.92-0.31-0.99-1-0.52-1.57
			c0.33-0.41,1.06-0.69,1.61-0.68c1.41,0.04,2.13,1.11,2.72,2.4c0.32-1.08,0.59-1.99,0.86-2.91c-1.35-0.19-2.6-0.39-3.86-0.52
			c-1.6-0.17-3.07-0.02-3.62,1.87c-1.11,0-2.21,0-3.28,0c0.42,0.85-0.82,2.24-2.95,3.16c-0.19-2.89,0.16-5.66,1.79-8.2
			c-1.37,0.1-2.62,0.19-3.62,0.26c0.19,1.43,0.51,2.83,0.54,4.23c0.05,2.12-0.05,4.24-0.17,6.35c-0.04,0.78-0.31,1.54-0.48,2.31
			c-0.01,0.02-0.01,0.05-0.02,0.07C343.14,374.41,343.14,374.38,343.14,374.35z M306.49,375.32c1.22-0.2,2.45-0.4,3.61-0.59
			c-0.13-0.23-0.31-0.54-0.49-0.85c0.18,0.05,0.38,0.17,0.55,0.13c0.57-0.12,1.15-0.25,1.67-0.49c0.08-0.04-0.09-1.03-0.25-1.07
			c-0.56-0.12-1.24-0.16-1.74,0.06c-0.23,0.1-0.15,0.9-0.21,1.38c-0.26-0.04-0.56-0.02-0.78-0.15c-1.78-1.06-2.8-2.77-3.96-4.6
			c1.43-1.02,2.81-1.99,4.19-2.97c-0.59,0-1.17,0-1.75,0c-0.59,0-1.17,0-1.76,0c0.47,0.9-0.94,2.47-2.89,3.2
			c-0.17-3.47,0.32-5.78,1.77-8.17c-1.3,0.09-2.58,0.18-3.57,0.25c0.19,1.53,0.48,3,0.52,4.49c0.05,2.03-0.05,4.07-0.17,6.11
			c-0.05,0.77-0.31,1.54-0.48,2.3c-0.01,0.02-0.01,0.05-0.02,0.07c0-0.03,0-0.06,0-0.09c0.8-0.08,1.6-0.16,2.23-0.22
			c0.62-1.39-1.1-2.99,0.9-4.01c0.91,1.38,1.82,2.68,2.63,4.03c0.18,0.29,0.02,0.79,0.01,1.19c-0.03,0.02-0.07,0.03-0.09,0.06
			c-0.01,0.01,0,0.04,0,0.06C306.44,375.41,306.47,375.37,306.49,375.32z M331.15,386c-3.48,0-6.84,0-10.19,0c0,12.8,0,25.49,0,38.2
			c3.44,0,6.79,0,10.19,0C331.15,411.44,331.15,398.77,331.15,386z M298.64,424.21c3.4,0,6.68,0,9.95,0c0-10.24,0-20.37,0-30.52
			c-3.36,0-6.64,0-9.95,0C298.64,403.89,298.64,414,298.64,424.21z M319.82,424.27c0-9.33,0-18.53,0-27.72c-3.43,0-6.76,0-10.1,0
			c0,9.28,0,18.49,0,27.72C313.13,424.27,316.43,424.27,319.82,424.27z M286.04,424.27c0-8.29,0-16.45,0-24.6c-3.35,0-6.6,0-9.86,0
			c0,8.25,0,16.41,0,24.6C279.51,424.27,282.73,424.27,286.04,424.27z M342.14,407.36c-3.4,0-6.65,0-9.88,0c0,5.69,0,11.29,0,16.86
			c3.36,0,6.61,0,9.88,0C342.14,418.56,342.14,412.98,342.14,407.36z M281.59,428.74c0.03-0.65,0.06-1.31,0.09-1.96
			c3.41,0,6.7,0,10.03,0c0.04,0.71,0.08,1.34,0.12,2.08c0.38-0.03,0.7-0.05,1.01-0.07c0.03-0.75,0.06-1.38,0.09-2.02
			c3.39,0,6.68,0,9.96,0c0.26,2.13,0.26,2.13,1.2,1.91c0.03-0.62,0.05-1.25,0.08-1.92c3.36,0,6.65,0,9.93,0
			c0.3,2.11,0.3,2.11,1.32,1.92c0-0.63,0-1.28,0-1.93c3.4,0,6.66,0,9.99,0c0.04,0.72,0.07,1.38,0.11,2.1
			c1.89,0.1,0.6-1.56,1.26-2.07c3.29,0,6.57,0,9.94,0c0,0.72,0,1.35,0,2.03c0.35,0,0.83,0.06,0.85-0.01
			c0.18-0.66,0.28-1.34,0.42-2.14c1.98,0,3.95,0,5.91,0c0.38-1.29-0.45-1.11-1.1-1.11c-22.08,0-44.15,0-66.23,0
			c-0.51,0-1.02,0-1.66,0c0-13.94,0-27.76,0-41.52c-1.45-0.6-0.9,0.76-1.34,1.09c-0.45,0.64-2.11-0.7-1.89,1.28
			c0.73,0,1.39,0,2.01,0c0,2.23,0,4.33,0,6.28c-0.67,0.6-2.16-0.47-2.07,1.39c0.77,0,1.43,0,2.07,0c0,2.23,0,4.32,0,6.27
			c-0.66,0.62-2.15-0.44-2.08,1.33c0.77,0.04,1.43,0.07,2.09,0.1c0,2.2,0,4.29,0,6.37c-2.16,0.31-2.16,0.31-1.88,1.22
			c0.62,0.03,1.25,0.06,1.88,0.1c0,2.19,0,4.28,0,6.36c-2.16,0.3-2.16,0.3-1.89,1.23c0.62,0.03,1.25,0.06,1.89,0.09
			c0,2.19,0,4.28,0,6.36c-2.15,0.32-2.15,0.32-1.89,1.27c0.3,0,0.62-0.01,0.94,0c0.31,0.01,0.63,0.04,0.92,0.06
			c0.31,1.69,0.5,1.85,2.16,1.85c1.54,0,3.09,0,4.61,0C280.78,428.81,280.78,428.81,281.59,428.74z M292.89,365.13
			c-1.16,0-2.16,0-2.82,0c0.21,1.13,0.45,2.24,0.62,3.37c0.08,0.51-0.01,1.04,0.04,1.56c0.17,2.02,1.14,3.05,3.13,3.31
			c1.89,0.24,3.04-0.81,4.07-2.32c-0.1,1.62-0.28,3.22-0.73,4.73c-0.25,0.85-1.15,1.37-2.03,0.95c-0.48-0.23-0.71-1-1.21-1.75
			c-0.65,0.04-1.72,0.12-2.67,0.18c0.59,0.85,0.96,1.92,1.71,2.39c2.58,1.62,5.98,0.21,6.25-2.42c0.33-3.31,0.08-6.68,0.08-10.06
			c-1.35,0-2.45,0-3.23,0c0.04,1.64,0.16,3.24,0.1,4.83c-0.03,0.87-0.5,1.72-1.48,1.77c-1.06,0.05-1.83-0.64-2.08-1.65
			c-0.2-0.79-0.19-1.66-0.15-2.48C292.52,366.74,292.74,365.97,292.89,365.13z M321.98,373.59c0.52-1.76,1.06-3.39,1.49-5.04
			c0.38-1.47,0.88-2.79,2.53-3.21c-1.72,0-3.43,0-5.22,0c1.19,1.36,0.89,4.66-0.74,6.55c-0.32-2.29-0.62-4.35-0.91-6.38
			c-1.04-0.29-1.61,0-1.83,1.06c-0.18,0.85-0.48,1.69-0.78,2.51c-0.32,0.9-0.69,1.79-1.14,2.93c-0.66-2.37-0.49-4.54,0.34-5.97
			c-1.1,0-2.22,0-3.35,0c1.62,2.31,1.23,5.12,2.12,7.54c1.89,0.2,1.89,0.2,2.59-1.51c0.33-0.81,0.66-1.61,1.07-2.59
			c0.39,1.51,0.73,2.82,1.06,4.11C320.15,373.59,321.02,373.59,321.98,373.59z M254.58,377.16c0.56-0.11,1.41-0.28,2.31-0.47
			c-0.95-1.88-0.87-3.73-0.46-5.7c2.3,2.06,4.35,2.39,6.76,1.18c1.64-0.83,2.28-3.04,1.31-4.5c-1.06-1.57-3.06-2.43-4.9-1.98
			c-1.06,0.26-2.07,0.7-3.14,1.08c0.07-0.48,0.15-0.97,0.25-1.61c-1.1,0.23-2.05,0.42-2.88,0.59c0.32,0.42,0.94,0.86,0.94,1.3
			C254.77,370.41,254.66,373.75,254.58,377.16z M266.73,367.45c0.99-0.12,1.92-0.24,2.86-0.36c-0.37-1.28-0.26-1.75,0.45-1.91
			c0.79-0.18,1.41,0.44,1.53,1.56c0.07,0.6,0.11,1.2,0.16,1.83c-0.66-0.23-1.14-0.44-1.64-0.54c-1.44-0.3-3.19,0.36-3.83,1.4
			c-0.64,1.03-0.57,2.22,0.18,3.12c0.89,1.06,2.56,1.48,4.05,0.85c0.81-0.34,1.52-0.92,2.23-1.36c0.59,0.44,1.18,0.88,1.89,1.4
			c0.33-0.6,0.59-1.06,0.9-1.61c-1.58-0.4-1.92-1.45-1.93-2.77c-0.01-0.95-0.1-1.92-0.28-2.85c-0.26-1.33-1.59-2.3-3.06-2.37
			c-1.39-0.07-2.69,0.82-3.11,2.14C266.99,366.42,266.88,366.88,266.73,367.45z M329.11,374.17c2.94,0.01,4.47-1.33,4.49-3.93
			c0.02-2.27-1.84-4.04-4.26-4.06c-2.77-0.02-4.34,1.31-4.33,3.67C325.03,372.11,326.97,374.16,329.11,374.17z M278.44,364.36
			c0.2-0.57,0.33-0.93,0.48-1.35c-1.19,0-2.31,0-3.43,0c0.23,0.47,0.45,0.91,0.74,1.51c-0.99,0-1.76,0-2.69,0
			c0.46,1.68,1.89,0.52,2.54,1.06c0,2.04-0.05,4.03,0.01,6.02c0.06,1.88,1.18,2.67,3.04,2.4c1.53-0.22,2.14-1.4,2.91-2.54
			c-0.75-0.28-1.49-0.56-2.36-0.88c0.16,1.12-0.04,1.89-1.36,2.09c-0.51-2.35-0.03-4.6,0.16-6.93c0.87,0,1.65,0,2.52,0
			c0.04-0.47,0.08-0.88,0.13-1.38C280.2,364.36,279.41,364.36,278.44,364.36z M281.7,365.65c1.26,2.94,1.04,5.89,0.74,8.88
			c1.04-0.09,2.07-0.18,3.19-0.28c-1.42-1.69-1.19-3.63-1.1-5.46c0.02-0.48,0.9-0.99,1.47-1.33c0.21-0.13,0.99,0.22,0.98,0.3
			c-0.06,0.55-0.25,1.09-0.41,1.62c-0.04,0.13-0.11,0.26-0.21,0.51c1.14-0.13,2.15-0.24,3.41-0.38c-0.22-1.16-0.3-2.24-0.65-3.22
			c-0.4-1.11-1.32-1.33-2.31-0.69c-0.85,0.55-1.66,1.17-2.64,1.86c0.08-0.84,0.14-1.49,0.21-2.13
			C283.44,365.44,282.58,365.54,281.7,365.65z M334.4,365.65c1.27,2.93,1.04,5.88,0.76,8.87c1.02-0.09,2.05-0.17,3.22-0.27
			c-1.48-1.64-1.21-3.54-1.15-5.33c0.02-0.52,0.89-1.07,1.47-1.47c0.19-0.13,1,0.23,0.99,0.28c-0.1,0.58-0.29,1.15-0.46,1.72
			c-0.03,0.1-0.05,0.21-0.11,0.42c1.08-0.12,2.09-0.23,3.34-0.37c-0.19-1.11-0.24-2.16-0.57-3.11c-0.42-1.23-1.37-1.47-2.46-0.75
			c-0.82,0.53-1.6,1.13-2.55,1.81c0.08-0.83,0.14-1.48,0.21-2.13C336.16,365.44,335.3,365.54,334.4,365.65z M297.36,422.72
			c-3.39,0-6.67,0-9.94,0c0,0.55,0,1.01,0,1.49c3.35,0,6.63,0,9.94,0C297.36,423.69,297.36,423.26,297.36,422.72z"/>
		<path class="st3" d="M331.15,386c0,12.77,0,25.43,0,38.2c-3.39,0-6.75,0-10.19,0c0-12.71,0-25.41,0-38.2
			C324.31,386,327.67,386,331.15,386z"/>
		<path class="st3" d="M298.64,424.21c0-10.21,0-20.31,0-30.52c3.31,0,6.59,0,9.95,0c0,10.15,0,20.28,0,30.52
			C305.32,424.21,302.04,424.21,298.64,424.21z"/>
		<path class="st3" d="M319.82,424.27c-3.4,0-6.7,0-10.1,0c0-9.24,0-18.44,0-27.72c3.34,0,6.67,0,10.1,0
			C319.82,405.74,319.82,414.94,319.82,424.27z"/>
		<path class="st3" d="M286.04,424.27c-3.31,0-6.54,0-9.86,0c0-8.19,0-16.35,0-24.6c3.26,0,6.51,0,9.86,0
			C286.04,407.82,286.04,415.98,286.04,424.27z"/>
		<path class="st3" d="M342.14,407.36c0,5.63,0,11.2,0,16.86c-3.28,0-6.53,0-9.88,0c0-5.57,0-11.17,0-16.86
			C335.49,407.36,338.74,407.36,342.14,407.36z"/>
		<path class="st4" d="M281.59,428.74c-0.81,0.07-0.81,0.07-1.14-2.05c-1.52,0-3.07,0-4.61,0c-1.66,0-1.85-0.16-2.16-1.85
			c-0.3-0.02-0.61-0.05-0.92-0.06c-0.32-0.01-0.63,0-0.94,0c-0.25-0.95-0.25-0.95,1.89-1.27c0-2.08,0-4.17,0-6.36
			c-0.64-0.03-1.27-0.06-1.89-0.09c-0.27-0.93-0.27-0.93,1.89-1.23c0-2.08,0-4.17,0-6.36c-0.63-0.03-1.25-0.06-1.88-0.1
			c-0.28-0.9-0.28-0.9,1.88-1.22c0-2.08,0-4.17,0-6.37c-0.66-0.03-1.32-0.06-2.09-0.1c-0.06-1.77,1.42-0.71,2.08-1.33
			c0-1.94,0-4.04,0-6.27c-0.64,0-1.3,0-2.07,0c-0.09-1.87,1.4-0.79,2.07-1.39c0-1.95,0-4.05,0-6.28c-0.62,0-1.28,0-2.01,0
			c-0.22-1.99,1.44-0.64,1.89-1.28c0.44-0.33-0.11-1.69,1.34-1.09c0,13.76,0,27.58,0,41.52c0.64,0,1.15,0,1.66,0
			c22.08,0,44.15,0,66.23,0c0.65,0,1.48-0.18,1.1,1.11c-1.96,0-3.94,0-5.91,0c-0.14,0.8-0.24,1.48-0.42,2.14
			c-0.02,0.07-0.5,0.01-0.85,0.01c0-0.68,0-1.31,0-2.03c-3.37,0-6.66,0-9.94,0c-0.66,0.5,0.62,2.17-1.26,2.07
			c-0.04-0.72-0.08-1.38-0.11-2.1c-3.33,0-6.59,0-9.99,0c0,0.65,0,1.3,0,1.93c-1.01,0.19-1.01,0.19-1.32-1.92c-3.28,0-6.57,0-9.93,0
			c-0.03,0.67-0.06,1.3-0.08,1.92c-0.93,0.22-0.93,0.22-1.2-1.91c-3.28,0-6.57,0-9.96,0c-0.03,0.64-0.06,1.27-0.09,2.02
			c-0.31,0.02-0.63,0.04-1.01,0.07c-0.04-0.74-0.08-1.37-0.12-2.08c-3.32,0-6.62,0-10.03,0
			C281.65,427.44,281.62,428.1,281.59,428.74z"/>
		<path class="st5" d="M292.89,365.13c-0.15,0.84-0.36,1.61-0.41,2.4c-0.05,0.82-0.05,1.69,0.15,2.48c0.25,1.01,1.03,1.7,2.08,1.65
			c0.98-0.04,1.45-0.9,1.48-1.77c0.06-1.59-0.06-3.19-0.1-4.83c0.78,0,1.88,0,3.23,0c0,3.38,0.25,6.75-0.08,10.06
			c-0.26,2.62-3.67,4.04-6.25,2.42c-0.75-0.47-1.12-1.54-1.71-2.39c0.95-0.06,2.02-0.14,2.67-0.18c0.49,0.76,0.72,1.52,1.21,1.75
			c0.88,0.42,1.78-0.1,2.03-0.95c0.45-1.52,0.63-3.11,0.73-4.73c-1.03,1.51-2.18,2.56-4.07,2.32c-1.98-0.25-2.96-1.29-3.13-3.31
			c-0.04-0.52,0.04-1.05-0.04-1.56c-0.17-1.12-0.41-2.23-0.62-3.37C290.72,365.13,291.73,365.13,292.89,365.13z"/>
		<path class="st6" d="M321.98,373.59c-0.96,0-1.83,0-2.77,0c-0.33-1.29-0.67-2.59-1.06-4.11c-0.41,0.98-0.74,1.78-1.07,2.59
			c-0.7,1.72-0.69,1.72-2.59,1.51c-0.88-2.43-0.49-5.23-2.12-7.54c1.13,0,2.25,0,3.35,0c-0.83,1.43-1,3.59-0.34,5.97
			c0.45-1.14,0.82-2.03,1.14-2.93c0.29-0.83,0.6-1.66,0.78-2.51c0.22-1.06,0.8-1.36,1.83-1.06c0.29,2.03,0.58,4.09,0.91,6.38
			c1.62-1.88,1.93-5.19,0.74-6.55c1.78,0,3.5,0,5.22,0c-1.65,0.42-2.15,1.74-2.53,3.21C323.04,370.2,322.51,371.83,321.98,373.59z"
			/>
		<path class="st7" d="M254.58,377.16c0.08-3.42,0.19-6.76,0.18-10.09c0-0.44-0.62-0.88-0.94-1.3c0.82-0.17,1.78-0.37,2.88-0.59
			c-0.1,0.64-0.17,1.13-0.25,1.61c1.08-0.38,2.09-0.82,3.14-1.08c1.83-0.45,3.84,0.41,4.9,1.98c0.98,1.45,0.33,3.67-1.31,4.5
			c-2.41,1.22-4.46,0.89-6.76-1.18c-0.41,1.97-0.48,3.82,0.46,5.7C255.99,376.88,255.14,377.05,254.58,377.16z M260.57,371.65
			c1.42-0.06,1.64-0.85,1.82-2.84c0.1-1.16-0.96-2.54-1.76-2.52c-1.18,0.02-3.12,1.99-3.18,3.22
			C257.4,370.65,258.83,371.64,260.57,371.65z"/>
		<path class="st6" d="M266.73,367.45c0.16-0.57,0.27-1.03,0.41-1.48c0.42-1.31,1.72-2.2,3.11-2.14c1.47,0.07,2.8,1.05,3.06,2.37
			c0.18,0.93,0.27,1.9,0.28,2.85c0.01,1.33,0.35,2.37,1.93,2.77c-0.31,0.56-0.56,1.01-0.9,1.61c-0.71-0.53-1.3-0.96-1.89-1.4
			c-0.71,0.44-1.42,1.02-2.23,1.36c-1.49,0.62-3.17,0.21-4.05-0.85c-0.75-0.9-0.82-2.09-0.18-3.12c0.64-1.03,2.39-1.69,3.83-1.4
			c0.5,0.1,0.97,0.32,1.64,0.54c-0.05-0.64-0.09-1.24-0.16-1.83c-0.13-1.12-0.75-1.74-1.53-1.56c-0.71,0.16-0.82,0.63-0.45,1.91
			C268.65,367.22,267.71,367.33,266.73,367.45z M269.97,369.07c-1.26-0.02-2.25,0.78-2.19,1.72c0.06,0.92,0.71,1.3,1.54,1.34
			c0.89,0.04,1.96-1.03,1.97-1.92C271.33,369.18,270.57,369.13,269.97,369.07z"/>
		<path class="st6" d="M309.62,373.89c0.18,0.31,0.36,0.62,0.49,0.85c-1.17,0.19-2.39,0.39-3.61,0.59l0.02,0.02
			c0-0.4,0.16-0.9-0.01-1.19c-0.81-1.35-1.71-2.65-2.63-4.03c-2.01,1.02-0.28,2.62-0.9,4.01c-0.63,0.06-1.43,0.14-2.23,0.22
			l0.02,0.02c0.17-0.77,0.43-1.53,0.48-2.3c0.12-2.03,0.22-4.07,0.17-6.11c-0.04-1.48-0.33-2.96-0.52-4.49
			c1-0.07,2.27-0.16,3.57-0.25c-1.45,2.39-1.95,4.69-1.77,8.17c1.95-0.73,3.37-2.3,2.89-3.2c0.59,0,1.17,0,1.76,0
			c0.58,0,1.16,0,1.75,0c-1.38,0.98-2.75,1.95-4.19,2.97c1.15,1.83,2.18,3.54,3.96,4.6c0.21,0.13,0.51,0.1,0.78,0.15L309.62,373.89z
			"/>
		<path class="st6" d="M351.31,366.38c-1.31,0.89-2.62,1.78-3.96,2.69c1.24,2.52,2.95,4.37,5.4,5.62c-1.41,0.23-2.63,0.43-3.86,0.63
			c0,0,0.02,0.02,0.02,0.02c0-0.4,0.16-0.9-0.01-1.19c-0.81-1.35-1.71-2.65-2.63-4.03c-2,1.02-0.29,2.62-0.89,4.01
			c-0.64,0.06-1.44,0.14-2.24,0.22l0.02,0.02c0.17-0.77,0.44-1.53,0.48-2.31c0.12-2.12,0.22-4.24,0.17-6.35
			c-0.03-1.4-0.35-2.8-0.54-4.23c1-0.07,2.25-0.16,3.62-0.26c-1.63,2.54-1.98,5.31-1.79,8.2c2.13-0.92,3.38-2.31,2.95-3.16
			c1.06,0,2.17,0,3.28,0C351.31,366.29,351.31,366.34,351.31,366.38z"/>
		<path class="st8" d="M329.11,374.17c-2.14-0.01-4.08-2.06-4.09-4.32c-0.01-2.36,1.56-3.69,4.33-3.67
			c2.42,0.02,4.28,1.79,4.26,4.06C333.58,372.84,332.05,374.18,329.11,374.17z M331.29,370.06c-0.06-0.06-0.12-0.11-0.19-0.17
			c-0.15-0.65-0.21-1.35-0.46-1.96c-0.38-0.89-1.53-1.1-2.19-0.5c-1.13,1.03-1.46,3.47-0.66,4.79c0.54,0.89,1.52,1.14,2.18,0.35
			C330.56,371.87,330.86,370.91,331.29,370.06z"/>
		<path class="st6" d="M278.44,364.36c0.97,0,1.76,0,2.69,0c-0.05,0.5-0.08,0.91-0.13,1.38c-0.87,0-1.65,0-2.52,0
			c-0.2,2.33-0.67,4.58-0.16,6.93c1.32-0.2,1.52-0.97,1.36-2.09c0.87,0.33,1.61,0.6,2.36,0.88c-0.77,1.14-1.38,2.31-2.91,2.54
			c-1.86,0.27-2.98-0.52-3.04-2.4c-0.06-1.99-0.01-3.99-0.01-6.02c-0.65-0.54-2.08,0.63-2.54-1.06c0.93,0,1.7,0,2.69,0
			c-0.29-0.6-0.51-1.04-0.74-1.51c1.12,0,2.24,0,3.43,0C278.78,363.43,278.65,363.79,278.44,364.36z"/>
		<path class="st9" d="M351.31,366.38c0-0.04,0-0.09,0.01-0.13c0.55-1.89,2.02-2.04,3.62-1.87c1.26,0.13,2.5,0.33,3.86,0.52
			c-0.27,0.92-0.54,1.83-0.86,2.91c-0.59-1.3-1.31-2.37-2.72-2.4c-0.54-0.01-1.27,0.27-1.61,0.68c-0.47,0.57-0.4,1.26,0.52,1.57
			c1.17,0.4,2.31,0.86,3.46,1.3c1.04,0.4,1.41,1.22,1.39,2.27c-0.02,1.08-0.65,1.81-1.61,1.94c-0.98,0.14-2.06,0.09-3-0.19
			c-1-0.31-1.86-0.66-2.82,0.39c0.24-1.35,0.44-2.46,0.6-3.4c0.81,0.64,1.59,1.39,2.49,1.93c0.58,0.35,1.33,0.37,1.69-0.49
			c0.36-0.85,0.3-1.55-0.67-1.96c-0.77-0.32-1.52-0.69-2.29-1.02C352.43,368,351.55,367.52,351.31,366.38z"/>
		<path class="st6" d="M281.7,365.65c0.89-0.11,1.74-0.21,2.67-0.33c-0.06,0.64-0.13,1.29-0.21,2.13c0.98-0.69,1.79-1.31,2.64-1.86
			c1-0.64,1.91-0.42,2.31,0.69c0.36,0.98,0.43,2.06,0.65,3.22c-1.25,0.14-2.26,0.25-3.41,0.38c0.11-0.26,0.18-0.38,0.21-0.51
			c0.16-0.54,0.35-1.07,0.41-1.62c0.01-0.07-0.77-0.42-0.98-0.3c-0.57,0.34-1.45,0.85-1.47,1.33c-0.09,1.83-0.32,3.77,1.1,5.46
			c-1.13,0.1-2.16,0.19-3.19,0.28C282.74,371.54,282.96,368.59,281.7,365.65z"/>
		<path class="st6" d="M334.4,365.65c0.9-0.11,1.76-0.21,2.69-0.32c-0.06,0.65-0.13,1.3-0.21,2.13c0.95-0.68,1.73-1.27,2.55-1.81
			c1.1-0.72,2.05-0.47,2.46,0.75c0.32,0.95,0.38,1.99,0.57,3.11c-1.24,0.14-2.26,0.25-3.34,0.37c0.05-0.21,0.08-0.32,0.11-0.42
			c0.17-0.57,0.36-1.14,0.46-1.72c0.01-0.05-0.8-0.41-0.99-0.28c-0.58,0.4-1.45,0.95-1.47,1.47c-0.06,1.79-0.33,3.7,1.15,5.33
			c-1.17,0.1-2.21,0.19-3.22,0.27C335.44,371.53,335.67,368.58,334.4,365.65z"/>
		<path class="st3" d="M297.36,422.72c0,0.54,0,0.97,0,1.49c-3.31,0-6.59,0-9.94,0c0-0.48,0-0.94,0-1.49
			C290.7,422.72,293.97,422.72,297.36,422.72z"/>
		<path class="st10" d="M309.63,373.9c0.06-0.48-0.02-1.27,0.21-1.38c0.5-0.23,1.18-0.19,1.74-0.06c0.17,0.04,0.33,1.03,0.25,1.07
			c-0.52,0.25-1.1,0.38-1.67,0.49c-0.17,0.03-0.36-0.09-0.55-0.13C309.62,373.89,309.63,373.9,309.63,373.9z"/>
		<path class="st6" d="M300.74,374.35c0,0.03,0,0.06,0,0.09c0.01-0.02,0.01-0.05,0.02-0.07
			C300.75,374.36,300.74,374.35,300.74,374.35z"/>
		<path class="st6" d="M343.14,374.35c0,0.03,0,0.06,0,0.09c0.01-0.02,0.01-0.05,0.02-0.07
			C343.16,374.36,343.14,374.35,343.14,374.35z"/>
		<path class="st6" d="M306.49,375.32c-0.03,0.05-0.05,0.09-0.08,0.14c0-0.02-0.01-0.05,0-0.06c0.03-0.02,0.06-0.04,0.09-0.06
			C306.51,375.34,306.49,375.32,306.49,375.32z"/>
		<path class="st6" d="M348.9,375.32c-0.03,0.05-0.05,0.09-0.08,0.14c0-0.02-0.01-0.05,0-0.06c0.03-0.02,0.06-0.04,0.09-0.06
			C348.92,375.33,348.9,375.32,348.9,375.32z"/>
		<path class="st11" d="M260.57,371.65c-1.73-0.01-3.17-1-3.12-2.14c0.06-1.23,2-3.2,3.18-3.22c0.8-0.01,1.86,1.36,1.76,2.52
			C262.21,370.79,261.99,371.59,260.57,371.65z"/>
		<path class="st12" d="M269.97,369.07c0.59,0.06,1.35,0.11,1.33,1.13c-0.02,0.89-1.09,1.96-1.97,1.92
			c-0.83-0.03-1.48-0.41-1.54-1.34C267.73,369.85,268.72,369.05,269.97,369.07z"/>
		<path class="st13" d="M331.29,370.06c-0.43,0.85-0.73,1.81-1.32,2.52c-0.66,0.79-1.64,0.54-2.18-0.35
			c-0.8-1.32-0.46-3.76,0.66-4.79c0.66-0.61,1.82-0.39,2.19,0.5c0.26,0.61,0.32,1.3,0.46,1.96
			C331.17,369.95,331.23,370.01,331.29,370.06z"/>
	</g>
</g>
</svg>
